<mxfile host="65bd71144e">
    <diagram id="D_gLeVfheplufITs3tqa" name="Page-1">
        <mxGraphModel dx="1018" dy="549" grid="1" gridSize="10" guides="1" tooltips="1" connect="1" arrows="1" fold="1" page="1" pageScale="1" pageWidth="850" pageHeight="1100" math="0" shadow="0">
            <root>
                <mxCell id="0"/>
                <mxCell id="1" parent="0"/>
                <mxCell id="2" value="Artista" style="swimlane;fontStyle=1;align=center;verticalAlign=top;childLayout=stackLayout;horizontal=1;startSize=26;horizontalStack=0;resizeParent=1;resizeParentMax=0;resizeLast=0;collapsible=1;marginBottom=0;" parent="1" vertex="1">
                    <mxGeometry x="440" y="240" width="215" height="112" as="geometry"/>
                </mxCell>
                <mxCell id="3" value="nome: char[50]&#10;tipo: char[20]&#10;estilo: char[20]&#10;num_albuns: int&#10;albuns: *Arvore_Rubro_Negro_Album" style="text;strokeColor=none;fillColor=none;align=left;verticalAlign=top;spacingLeft=4;spacingRight=4;overflow=hidden;rotatable=0;points=[[0,0.5],[1,0.5]];portConstraint=eastwest;" parent="2" vertex="1">
                    <mxGeometry y="26" width="215" height="86" as="geometry"/>
                </mxCell>
                <mxCell id="8" value="Album" style="swimlane;fontStyle=1;align=center;verticalAlign=top;childLayout=stackLayout;horizontal=1;startSize=26;horizontalStack=0;resizeParent=1;resizeParentMax=0;resizeLast=0;collapsible=1;marginBottom=0;" parent="1" vertex="1">
                    <mxGeometry x="120" y="450" width="190" height="100" as="geometry"/>
                </mxCell>
                <mxCell id="9" value="titulo: char[50]&#10;ano: int&#10;qtd_musicas: int&#10;musicas: *Lista_Ordenada" style="text;strokeColor=none;fillColor=none;align=left;verticalAlign=top;spacingLeft=4;spacingRight=4;overflow=hidden;rotatable=0;points=[[0,0.5],[1,0.5]];portConstraint=eastwest;" parent="8" vertex="1">
                    <mxGeometry y="26" width="190" height="74" as="geometry"/>
                </mxCell>
                <mxCell id="27" style="edgeStyle=none;html=1;startArrow=none;startFill=0;endArrow=none;endFill=0;" parent="1" source="12" target="26" edge="1">
                    <mxGeometry relative="1" as="geometry"/>
                </mxCell>
                <mxCell id="12" value="Musica" style="swimlane;fontStyle=1;align=center;verticalAlign=top;childLayout=stackLayout;horizontal=1;startSize=26;horizontalStack=0;resizeParent=1;resizeParentMax=0;resizeLast=0;collapsible=1;marginBottom=0;" parent="1" vertex="1">
                    <mxGeometry x="570" y="640" width="160" height="70" as="geometry"/>
                </mxCell>
                <mxCell id="13" value="titulo: char[50]&#10;minutos_musica: float&#10;" style="text;strokeColor=none;fillColor=none;align=left;verticalAlign=top;spacingLeft=4;spacingRight=4;overflow=hidden;rotatable=0;points=[[0,0.5],[1,0.5]];portConstraint=eastwest;" parent="12" vertex="1">
                    <mxGeometry y="26" width="160" height="44" as="geometry"/>
                </mxCell>
                <mxCell id="28" style="edgeStyle=none;html=1;startArrow=none;startFill=0;endArrow=none;endFill=0;" parent="1" source="25" target="9" edge="1">
                    <mxGeometry relative="1" as="geometry"/>
                </mxCell>
                <mxCell id="25" value="Lista_Ordenada" style="swimlane;fontStyle=1;align=center;verticalAlign=top;childLayout=stackLayout;horizontal=1;startSize=26;horizontalStack=0;resizeParent=1;resizeParentMax=0;resizeLast=0;collapsible=1;marginBottom=0;" parent="1" vertex="1">
                    <mxGeometry x="250" y="630" width="160" height="80" as="geometry"/>
                </mxCell>
                <mxCell id="26" value="musica: Musica&#10;proxima: *Lista_ordenada&#10;anterior: *Lista_ordenada" style="text;strokeColor=none;fillColor=none;align=left;verticalAlign=top;spacingLeft=4;spacingRight=4;overflow=hidden;rotatable=0;points=[[0,0.5],[1,0.5]];portConstraint=eastwest;" parent="25" vertex="1">
                    <mxGeometry y="26" width="160" height="54" as="geometry"/>
                </mxCell>
                <mxCell id="32" style="edgeStyle=none;html=1;startArrow=none;startFill=0;endArrow=none;endFill=0;" parent="1" source="29" target="3" edge="1">
                    <mxGeometry relative="1" as="geometry"/>
                </mxCell>
                <mxCell id="29" value="Rubro_Negro_Album" style="swimlane;fontStyle=1;align=center;verticalAlign=top;childLayout=stackLayout;horizontal=1;startSize=26;horizontalStack=0;resizeParent=1;resizeParentMax=0;resizeLast=0;collapsible=1;marginBottom=0;" parent="1" vertex="1">
                    <mxGeometry x="467.5" y="440" width="160" height="110" as="geometry"/>
                </mxCell>
                <mxCell id="30" value="album: Album&#10;direita: *Artista&#10;esquerda: *Artista&#10;cor: int&#10;" style="text;strokeColor=none;fillColor=none;align=left;verticalAlign=top;spacingLeft=4;spacingRight=4;overflow=hidden;rotatable=0;points=[[0,0.5],[1,0.5]];portConstraint=eastwest;" parent="29" vertex="1">
                    <mxGeometry y="26" width="160" height="84" as="geometry"/>
                </mxCell>
                <mxCell id="34" value="Rubro_Negro_Artista" style="swimlane;fontStyle=1;align=center;verticalAlign=top;childLayout=stackLayout;horizontal=1;startSize=26;horizontalStack=0;resizeParent=1;resizeParentMax=0;resizeLast=0;collapsible=1;marginBottom=0;" parent="1" vertex="1">
                    <mxGeometry x="120" y="240" width="205" height="110" as="geometry"/>
                </mxCell>
                <mxCell id="35" value="artista: Artista&#10;direita: *Rubro_Negro_Artista&#10;esquerda: *Rubro_Negro_Artista&#10;cor: int" style="text;strokeColor=none;fillColor=none;align=left;verticalAlign=top;spacingLeft=4;spacingRight=4;overflow=hidden;rotatable=0;points=[[0,0.5],[1,0.5]];portConstraint=eastwest;" parent="34" vertex="1">
                    <mxGeometry y="26" width="205" height="84" as="geometry"/>
                </mxCell>
                <mxCell id="42" style="edgeStyle=none;html=1;startArrow=none;startFill=0;endArrow=none;endFill=0;" parent="1" source="9" target="30" edge="1">
                    <mxGeometry relative="1" as="geometry"/>
                </mxCell>
                <mxCell id="44" style="edgeStyle=none;html=1;startArrow=none;startFill=0;endArrow=none;endFill=0;" parent="1" source="3" target="35" edge="1">
                    <mxGeometry relative="1" as="geometry"/>
                </mxCell>
            </root>
        </mxGraphModel>
    </diagram>
</mxfile>